<svg aria-hidden="true" style="position: absolute; width: 0; height: 0; overflow: hidden;" version="1.1" xmlns="http://www.w3.org/2000/svg" xmlns:xlink="http://www.w3.org/1999/xlink">
<defs>
<symbol id="map-pin" width="16" height="16" viewBox="0 0 16 16" fill="none">
<path d="M14 6.66667C14 11.3333 8 15.3333 8 15.3333C8 15.3333 2 11.3333 2 6.66667C2 5.07537 2.63214 3.54925 3.75736 2.42403C4.88258 1.29881 6.4087 0.666672 8 0.666672C9.5913 0.666672 11.1174 1.29881 12.2426 2.42403C13.3679 3.54925 14 5.07537 14 6.66667Z" stroke="#101828" stroke-width="1.3" stroke-linecap="round" stroke-linejoin="round"/>
<path d="M8 8.66667C9.10457 8.66667 10 7.77124 10 6.66667C10 5.5621 9.10457 4.66667 8 4.66667C6.89543 4.66667 6 5.5621 6 6.66667C6 7.77124 6.89543 8.66667 8 8.66667Z" stroke="#101828" stroke-width="1.3" stroke-linecap="round" stroke-linejoin="round"/>
</symbol>
<symbol id="star" width="16" height="16" viewBox="0 0 16 16" fill="none">
<g clip-path="url(#clip0_1_2567)">
<path d="M6.20021 4.69703L8 1.28579L9.79979 4.69703C9.95896 4.9987 10.2491 5.20947 10.5851 5.26762L14.3856 5.92519L11.6975 8.69103C11.4598 8.93563 11.3489 9.27666 11.3975 9.61427L11.9465 13.4319L8.48537 11.7301C8.17929 11.5795 7.82071 11.5795 7.51463 11.7301L4.05348 13.4319L4.6025 9.61427C4.65105 9.27666 4.54024 8.93563 4.30252 8.69103L1.6144 5.92519L5.41486 5.26762C5.75095 5.20947 6.04104 4.9987 6.20021 4.69703Z" fill="#FFC531" stroke="#FFC531" stroke-width="1.2"/>
</g>
<defs>
<clipPath>
<rect width="16" height="16" fill="white"/>
</clipPath>
</defs>
</symbol>
</defs>
</svg>
